# xmcd
#
# Track frame offsets:
#	150
#	24372
#	42807
#	59037
#	82784
#	103461
#	122571
#	138420
#	152759
#	169284
#	186777
#	202869
#
# Disc length: 2993 seconds
#
# Revision: 1
# Processed by: cddbd v1.5.2PL0 Copyright (c) Steve Scherf et al.
# Submitted via: audiograbber 1.83.01
#
DISCID=9d0baf0c
DTITLE=CLÁUDIO RIOS - VAQUEIRO APAIXONADO
DYEAR=1900
DGENRE=FORRÓ
TTITLE0=VAQUEIRO APAIXONADO
TTITLE1=TOCANDO A BOIADA
TTITLE2=SOLIDÃO
TTITLE3=VIDA DE VAQUEIRO
TTITLE4=NAMORAR COMIGO
TTITLE5=PENSE MAIS EM DEUS
TTITLE6=MEU CAVALO BAIO
TTITLE7=LAGEDO MOLHADO
TTITLE8=PAU DE SEBO
TTITLE9=É MADRUGADA-NAQUELE SÃO JOÃO-SÃO JOÃO E SÃO MIGUEL
TTITLE10=DO BRAÇO PRO LAÇO
TTITLE11=A CANÇÃO DO LENÇO
EXTD=
EXTT0=
EXTT1=
EXTT2=
EXTT3=
EXTT4=
EXTT5=
EXTT6=
EXTT7=
EXTT8=
EXTT9=
EXTT10=
EXTT11=
PLAYORDER=
